<?xml version="1.0" encoding="UTF-8"?><svg id="_圖層_2" xmlns="http://www.w3.org/2000/svg" viewBox="0 0 256 256"><defs><style>.cls-1{fill:none;}.cls-2{fill:#c73e3a;}</style></defs><g id="_圖層_1-2"><rect class="cls-1" width="256" height="256"/><path class="cls-2" d="M109.47,152.32c-3.55-3.61-7.06-7.17-10.6-10.77-.68,.4-1.02,.93-1.04,1.7,0,.34-.14,.67-.18,1.01-.07,.64-.36,1.41-.12,1.91,.68,1.35-.03,2.3-.72,3.23-.46,.61-.88,1.15-.93,1.97-.07,1.14-1,1.5-1.91,1.91-.31-.28-.6-.54-.91-.82-.29,.14-.56,.25-.82,.39-1.65,.87-2.53,.72-3.62-.72-1.52-2-2.39-4.24-2.61-6.75-.33-3.9-.36-7.79,.53-11.62,.43-1.84,.99-3.65,1.5-5.47,.43-1.53,.88-3.06,1.32-4.59,.01-.05,0-.1,.03-.15,1.04-2.19,1.35-4.55,1.78-6.91,.31-1.75,.44-3.46,.23-5.2-.09-.77-.15-1.77-1.08-1.96-1.08-.23-2.33-.45-3.18,.54-.44,.52-.8,.69-1.48,.7-.57,.01-1.41,.35-1.64,.79-.36,.69-.94,.98-1.45,1.42-.26,.23-.61,.4-.8,.67-1.23,1.82-3.05,2.99-4.69,4.37-.72,.6-1.28,1.27-1.19,2.28,.02,.23-1.38,3.67-1.58,5.09-.05,.39-.09,.82,.03,1.17,.36,1,.19,1.92-.07,2.92-.37,1.45-.45,2.96-.17,4.45,.14,.75,.05,1.44-.22,2.19-.28,.77-.43,1.66-.37,2.47,.09,1.2-.37,1.99-1.29,2.67-.79,.59-1.54,1.24-2.27,1.92-.99,.92-2.16,1.44-3.45,1.68-1.04,.19-1.84,.64-2.46,1.52-.33,.48-.8,.89-1.29,1.23-.6,.42-1.09,.89-1.18,1.64-.09,.67-.51,.84-1.09,1.01-2.35,.7-4.69,.55-6.88-.36-1.91-.79-3.66-1.98-5.45-3.05-.77-.45-1.4-1.17-2.2-1.52-2.35-1.05-3.77-2.9-4.71-5.18-.82-1.98-1.67-3.95-1.82-6.14-.06-.89-.31-1.78-.6-2.62-1.58-4.62-.84-9.03,1.01-13.4,.77-1.8,1.55-3.6,2.86-5.05,1.71-1.89,3.14-4.07,5.74-5.04,.83-.31,1.5-1.29,2.02-2.11,.65-1.04,1.41-1.62,2.66-1.58,.76,.03,1.3-.36,1.71-1.01,.96-1.51,2.5-1.97,4.16-2.25,.68-.11,1.33-.36,1.99-.56,.24-.07,.44-.26,.68-.31,2.15-.46,3.81-1.89,5.7-2.88,2.31-1.21,4.48-2.62,6.47-4.3,.3-.26,.7-.47,.88-.8,.43-.79,.9-1.39,1.93-1.29,.23,.02,.55-.25,.73-.46,.93-1.13,1.84-2.29,2.81-3.52,.74-.08,1.06,.29,1.1,1.1,.09,1.87,.12,1.87,.78,2.9,.38-.69,.73-1.34,1.09-1.99,.12,0,.24,0,.37,.01,.18,.48,.43,.95,.52,1.45,.2,1.07,.34,2.16,.47,3.24,.09,.83-.41,1.49-1.27,1.75-1.4,.43-1.82,.99-1.79,2.63,.55-.19,1.03-.38,1.53-.52,1.58-.45,3.15-.91,4.75-1.31,1.3-.32,2.42-.85,3.54-1.67,2.69-1.97,4.81-4.45,6.95-6.93,1.43-1.66,2.74-3.42,4.12-5.12,.34-.43,.75-.8,1.09-1.23,.3-.39,.61-.8,.79-1.25,.28-.72,.06-1.16-.68-1.37-.47-.14-.98-.15-1.48-.23-2.77-.43-5.51-1-7.92-2.51-1.51-.94-2.93-2.04-4.33-3.15-1.6-1.26-3.14-2.59-4.67-3.94-.51-.45-.96-1.02-1.3-1.61-.54-.95-.97-1.97-1.45-2.95-.64-1.29-1.32-2.57-1.93-3.87-.46-.99-.92-2-1.26-3.04-.73-2.23-1.35-4.48-2.61-6.5-.75-1.2-.48-1.97,.86-2.44,2.2-.77,4.46-1.39,6.66-2.15,1.73-.6,3.43-1.31,5.13-2.01,1.29-.52,2.56-1.1,3.84-1.64,3.14-1.33,5.93-3.2,8.54-5.39,1.62-1.36,3.42-2.52,5.22-3.64,2.49-1.56,5.04-3.03,7.6-4.48,2.12-1.2,4.33-2.24,6.41-3.5,2.81-1.7,5.87-2.75,8.99-3.61,4.25-1.17,8.56-1.34,12.87-.21,1.98,.52,3.93,1.11,5.69,2.19,1.1,.68,2.15,1.43,3.24,2.15,.92,.6,1.82,1.23,2.76,1.79,3.88,2.28,6.77,5.49,9.12,9.29,2.21,3.58,3.5,7.5,4.65,11.47,.42,1.46,.48,3.07,.44,4.6-.05,2.09-.27,4.19-1.11,6.15-.4,.94-.55,1.9-.46,2.92,.09,1.05-.03,2.06-.61,3.02-.64,1.07-1.51,1.76-2.72,1.87-1.07,.09-1.85,.53-2.59,1.29-1.12,1.17-2.44,2.05-4.16,2.11-.39,.01-.79,.14-1.16,.27-.52,.18-.96,.19-1.36-.26-.53-.61-1.18-.49-1.79-.2-1.39,.67-2.76,1.37-4.13,2.09-.73,.39-1.5,.71-2.23,1.05-1.11,.51-2.12,1.31-3.22,1.94-.89,.5-.74,1.59,.09,3.08,.85-.23,1.76-.41,2.62-.73,2.46-.91,5.01-1.26,7.62-1.33,2.19-.06,4.38-.22,6.56-.34,2.07-.12,4.16-.42,6.22-.31,3.18,.18,6.35,.55,9.38,1.67,1.26,.47,2.54,.9,3.83,1.27,2.7,.78,5.23,1.92,7.71,3.22,.22,.11,.44,.28,.67,.3,2.41,.26,3.9,2.09,5.73,3.32,.61,.41,1.2,.86,1.85,1.21,1,.55,2.07,.99,3.06,1.57,3.55,2.07,6.86,4.46,9.62,7.53,1.77,1.96,3.38,4.06,5.13,6.04,1.37,1.55,2.41,3.27,3.19,5.19,1.19,2.92,1.74,5.96,1.72,9.06-.02,2.18-.47,4.35-1.29,6.42-.52,1.29-1.65,1.96-2.61,2.81-.82,.73-1.64,1.45-2.53,2.1-.84,.61-1.73,1.15-2.63,1.67-.86,.5-1.75,.95-2.64,1.39-1.92,.95-3.81,1.95-6.01,2.12-1.14,.09-2.27,.31-3.38,.56-.72,.16-1.34,.09-2.03-.15-.88-.31-1.84-.4-2.75-.65-.65-.18-1.28-.45-1.91-.71-.18-.07-.32-.24-.48-.36-2-1.54-2.35-1.51-4.18,.07-.86,.74-1.81,1.38-2.69,2.1-.88,.73-1.68,1.54-2.57,2.26-.49,.4-1.1,.65-1.64,.99-1.49,.96-3.05,1.84-4.44,2.93-.96,.75-1.96,.67-3.32,.84,.93-.92,1.6-1.63,2.61-1.88,.83-.2,1.44-.66,1.77-1.46,.23-.56,.59-.91,1.24-.88,.19,0,.43-.04,.56-.15,1.16-.98,2.31-1.99,3.37-3.11-2.13,.41-3.61,2.05-5.41,3.05-.08-.12-.16-.24-.23-.37,.33-.42,.66-.84,1.14-1.46-.75-.05-1.23-.08-1.8-.11-.4,1.14-1.26,1.83-2.32,2.35-.67,.33-1.25,.81-2.05,.33-.16-.1-.49,.02-.72,.08-1.29,.36-1.29,.37-2.61-.49-.22,.47-.48,1.02-.8,1.69-.56-.64-.81-.92-1.12-1.28-.18,.05-.45,.05-.63,.18-.59,.44,.05,1.63-1.06,1.78,.07,.73-.02,1.52,.24,2.18,.35,.89,.34,1.71,.19,2.62-.18,1.08-.22,2.18-.25,3.27-.07,2.34-1.06,3.74-3.22,4.51-.64,.23-1.04,.11-1.32-.52-.35-.76-.75-1.5-1.13-2.25-1.16,.06-2.15-.04-2.68,1.26-.33,.81-1.05,.78-1.92,.14,1.21-1.83,1.19-2.13-.38-3.69-.33,.74-.53,1.52-.99,2.09-.45,.54-1.17,.86-1.96,1.41-.19-.54-.43-1.02-.5-1.51-.18-1.43-.26-1.5-1.63-1.02-.18,.06-.38,.08-.53,.1-.13-.1-.24-.14-.28-.22-.73-1.58-1.19-1.77-2.9-1.32-1.53,.41-3.06,.87-4.68,.8-1.01-.05-1.86,.31-2.8,.71-2.04,.86-4.21,1.4-6.65,2.18-.58,1.63-.12,3.67-.4,5.83,.58-.1,.96-.12,1.32-.22,1.62-.48,3.25-.94,4.85-1.51,2.02-.72,4.09-.83,6.19-.71,.4,.02,.8,.04,1.19,.03,1.78-.04,3.53-.18,5.28,.61,.89,.41,2.07,.31,3.1,.23,1.52-.11,2.99,.08,4.42,.48,1.82,.52,3.6,1.16,5.37,1.81,.85,.32,1.41,1.14,2.46,1.25,.92,.1,.38,1.02,.37,1.87,.88-.78,1.64-1.13,2.6-.6,.8,.44,1.57,.81,2.05,1.65,.31,.54,.68,1.04,1.44,1.18,.41,.07,.75,.59,1,.8,.57-.05,1.1-.25,1.51-.11,1.36,.48,2.68,1.08,4.01,1.64,.18,.08,.4,.16,.51,.3,1.42,1.83,3.75,2.51,5.23,4.38,1.87,2.37,4.2,4.36,6.27,6.58,.6,.64,.98,1.47,1.45,2.22,1.74,2.79,3.44,5.61,4.02,8.92,.22,1.27,.32,2.57,.39,3.86,.02,.42-.16,.88-.33,1.29-.5,1.19-1.08,2.35-1.57,3.55-.69,1.69-1.75,3.12-2.98,4.44-.68,.72-1.42,1.29-2.7,.65-.3,.4-.64,.78-.89,1.21-.6,1.05-1.43,1.58-2.68,1.51-.32-.02-.66,.38-.98,.59-.89,.58-1.41,.53-2.22-.23-.4-.37-.8-.73-1.25-1.14-.75,.59-1.41,1.08-1.92,1.98-1.5,2.63-2.13,5.58-3.29,8.32-.19,.45-.49,.84-.73,1.27-.14,.25-.34,.5-.4,.77-.36,1.68-1.02,3.22-2.02,4.61-.09,.12-.21,.26-.21,.39-.02,1.33-.98,2.01-1.86,2.73-.74,.61-1.35,1.26-1.74,2.19-.26,.62-.87,1.08-1.31,1.62-.28,.35-.61,.68-.8,1.07-.62,1.34-1.74,2.11-2.96,2.8-.13,.07-.34,.1-.39,.2-.77,1.63-2.55,1.8-3.84,2.67-.16,.11-.48,.17-.49,.28-.12,1.05-.87,1.08-1.64,1.07-.91-.02-1.29-.6-1.39-1.8-.28,.72-.41,1.08-.55,1.44h-1.85c.05,.67,.08,1.19,.12,1.7-1.37-.99-.99-2.45-1.12-3.98-.51,.15-.99,.16-1.27,.4-.79,.67-1.51,1.42-2.22,2.17-.46,.48-.91,.92-1.67,.7-.21-.51-.35-1.03-.62-1.48-.13-.22-.49-.29-.74-.43-.33,.37-.6,.68-1.02,1.16-.33-1.07-.6-1.94-.86-2.81-.72,.2-1.32,.44-1.94,.51-.4,.05-1.04,0-1.2-.25-.18-.29,.04-.84,.09-1.28-.53-.11-1.23-.24-1.93-.38-.33-.07-.66-.17-.99-.19-1.17-.06-1.85-.9-1.63-2.08,.05-.29,.12-.59,.14-.88,.05-.74-.22-1.27-1.09-1.44-.93,1.5-2.7,1.31-4.07,1.93-1.02-.93-2.15-1.02-3.47-.33-.21,.11-.53,.31-.64,.24-1.08-.74-1.49,.18-1.89,.65h-4.43v-.9c-.22,.06-.49,.06-.56,.18-.52,.92-1.18,1.25-2.23,.79-.31-.14-.81-.04-1.14,.12-1.46,.69-2.92,.77-4.5,.43-1.21-.26-2.48-.21-3.72-.32-.53-.05-1.05-.15-1.55-.47,2.42-.11,4.85-.17,7.27-.34,.98-.07,1.96-.31,2.9-.57,1.57-.44,3.12-.96,4.76-1.48,.14,.46,.24,.77,.35,1.12,.08-.11,.14-.24,.23-.32,.7-.54,1.38-1.1,2.11-1.6,1.19-.82,2.4-1.61,3.61-2.39,1.83-1.19,2.84-2.98,3.84-5.16-1.58,.48-3.01,.55-4.14,1.38-1.41,1.02-2.74,.66-4.07-.03-.33-.17-.55-.65-.7-1.03-.2-.5-.23-1.07-.41-1.58-.37-1.04-1.01-1.42-2.06-1.19-.63,.14-1.26,.34-1.83,.64-2.64,1.38-5.26,2.79-7.71,4.51-.47,.33-1.27,.43-1.86,.33-1.57-.28-2.89,.66-4.37,.78-.24,.02-.45,.56-.67,.86-.28,.38-.51,.81-.85,1.13-.74,.7-1.36,1.58-2.5,1.75-.19,.03-.32,.42-.35,.87,.51-.14,1.03-.29,1.63-.46,.3,1.35-1.14,.99-1.51,1.7-.36,.68-1.22,1.09-1.92,1.67,.32,.11,.59,.21,.91,.32-.03,.21,0,.47-.1,.57-.84,.75-1.71,1.47-2.57,2.2-.15,.13-.37,.22-.44,.38-.68,1.45-1.87,1.25-3.08,.99-.77-.17-1.61-.19-2.3-.54-.91-.46-1.78-1.07-2.52-1.78-.71-.69-1.34-1.41-2.24-1.92-.84-.48-1.62-1.21-2.21-1.99-1.23-1.63-2.95-2.55-4.72-3.28-1.62-.66-2.79-1.74-3.74-3.08-1.15-1.62-2.22-3.32-3.17-5.07-1.22-2.23-2.22-4.57-2.93-7.01-1.34-4.58-1.43-9.27-.76-13.94,.43-2.97,1.6-5.73,3.05-8.39,2.4-4.4,5.78-7.98,9.26-11.48,1.68-1.69,3.46-3.32,5.36-4.75,2.78-2.1,5.69-4.04,8.6-5.96,3.91-2.58,7.9-5.05,11.82-7.6,1.49-.97,2.93-2.04,4.53-3.17Zm22.14-29.39l.03,.05c-.05-.24-.11-.49-.16-.73-.34-1.48-.53-2.92,.49-4.28,.33-.45,.33-1.13,.51-1.7,.44-1.42,.74-2.92,1.38-4.25,1.73-3.6,3.17-7.31,4.38-11.11,.12-.37,.23-.78,.2-1.16-.04-.65-.52-.85-1.03-.47-.4,.3-.72,.73-1.15,.93-1.04,.49-1.97,1.08-2.6,2.07-.03,.04-1.7,.76-1.74,.82-1.19,1.88-2.94,3.36-3.82,5.45-.02,.04-.06,.08-.09,.12-1.25,1.32-1.69,3.05-2.5,4.74-1-.08-.95,.78-1.09,1.51-.17,.87-.37,1.74-.47,2.62-.17,1.43-.32,2.91,.52,4.2,1.26,1.93,2.33,3.94,2.86,6.18,.34,1.45,.39,2.96,.65,4.43,.53,3.09,1.11,6.16,1.69,9.24,.02,.12,.17,.22,.33,.42,.94-.98,2.48-1.25,2.99-2.76-.55-.23-.98-.42-1.52-.64,.56-.77,1.29-.85,2.01-1.03,1-.24,2.12-.39,2.95-.94,1.64-1.08,2.96-2.59,3.69-4.41,.49-1.22,1.09-2.7-.56-3.72-.11-.07-.22-.25-.22-.38,0-1.05-.74-1.37-1.55-1.74-.84-.38-.88-.69-.54-1.55,.16-.4,.29-.8,.41-1.11-1.04-.41-2.01-.65-2.81-1.16-.83-.52-1.51-1.3-2.49-2.18,.15,1.12,1.08,1.7,.43,2.73-.33-.06-.74-.13-1.16-.2Zm-24.86-25.71s-.52,.03-.62,.15c-.93,1.17-2.17,1.96-3.34,2.84-.29,.22-.41,.93-.31,1.33,.18,.7,.56,1.37,.94,2.01,.96,1.63,2.06,3.18,2.92,4.86,1.04,2.04,1.87,4.18,2.8,6.28,.22,.5,.45,1,.63,1.52,.5,1.38,.98,2.77,1.52,4.3,.72-.43,1.27-.74,1.81-1.08,.71-.45,1.38-1.01,2.13-1.38,1.56-.77,2.34-1.92,2.21-3.69-.21-2.93-.37-5.87-.57-8.8-.07-.99-.1-1.99-.26-2.97-.39-2.36-.82-4.72-1.28-7.07-.11-.56-.37-1.09-.56-1.63-1.02,.07-1.58,.64-2.22,1.12-.62,.47-1.33,.84-2,1.25-1.12-.73-2.76,.54-2.76,.54l-1.05,.42Zm12.57,63.8c-.24-.12-.37-.25-.48-.24-1.1,.09-1.78-.45-2.55-1.22-.81-.82-1.96-1.31-3.01-1.87-.25-.14-.69-.02-1.01,.08-1.29,.38-2.6,.72-3.83,1.23-1.82,.76-3.79,1.24-5.25,2.76-.65,.67-1.53,1.1-2.3,1.65-.52,.37-1.09,.7-1.53,1.15-3.28,3.29-5.02,7.39-5.99,11.84-.31,1.4-.34,2.86-.45,4.3-.03,.4,.14,.81,.29,1.55,1.2-.92,3.07-2.34,3.07-2.34l1.06-.97s1.08-.92,1.53-1.36c2.18-2.12,4.36-4.24,6.51-6.38,2.68-2.67,5.45-5.23,8.4-7.6,.19-.15,.42-.25,.65-.35,1.6-.73,3.2-1.45,4.91-2.23Zm21.04-45.25c.47,2.42,2.74,2.32,4.18,3.04,.71-.66,1.3-1.22,1.89-1.78,.87,.54,1.56,1.14,2.37,1.46,2.86,1.14,5.36,2.82,7.65,4.85,.33,.29,.68,.54,1.24,.98,.24-.36,.45-.63,.62-.93,1.11-1.95,2.32-3.85,3.31-5.86,1.43-2.9,2.73-5.86,3.35-9.09,.54-2.79,.4-5.56,.34-8.35-.05-1.98-.61-3.83-1.61-5.54-.5-.86-1.11-1.61-2.31-2.17,.18,.7,.27,1.17,.41,1.62,.75,2.49,1.46,4.97,1.37,7.61-.02,.59,.14,1.18,.19,1.78,.14,1.48,.31,2.96,.36,4.44,.02,.45-.2,1.01-.5,1.35-.66,.74-1.43,1.38-2.18,2.03-.62,.53-1.49,.6-1.85,.02-.51-.83-.96-.7-1.53-.16-.49,.46-.98,.71-1.52,.06-.15-.17-.32-.32-.47-.46-1.19,.77-1.77,.88-2.45,.07-1.1-1.33-2.22-1.29-3.53-.44-.17,.11-.38,.14-.54,.25-.75,.48-1.42,.64-2.36,.25-1.27-.53-2.81,.69-2.91,2.09-.03,.41-.09,.81-.13,1.22-.12,.02-.24,.04-.36,.06-.32-.64-.64-1.28-.98-1.94-.73,1.2,.6,2.24,.11,3.46-.71-.21-1.46-.85-2.17,.1Zm-25.07,63.72s.08-.05,.13-.08c.63-.33,.94-.83,.92-1.57-.05-1.75-.05-3.49-.1-5.24-.02-.79-.04-1.61-.21-2.37-.22-.94-.73-1.19-1.54-.68-1.93,1.22-3.84,2.48-5.67,3.85-1.11,.83-2.06,1.87-3.06,2.83-.71,.68-1.41,1.37-2.08,2.1-.43,.47-.74,1.08-1.2,1.51-.92,.84-1.78,2.73-1.76,4.2,.7-.62,1.38-1.21,2.35-2.05,.07,.92,.04,1.46,.17,1.95,.37,1.45-.46,2.26-1.5,2.96-.45,.31-.99,.48-1.45,.78-.71,.47-.71,.81,0,1.77,.87-.52,1.8-1,2.65-1.59,2.28-1.6,4.55-3.23,6.79-4.87,.68-.5,2.79-1.82,5.57-3.5Zm38.7,1.04c.14-.61,.28-.99,.29-1.38,.04-1.11,.09-2.22-1.36-2.62-.35-.1-.58-.64-.85-.99-1.25-1.61-2.26-3.4-3.84-4.75-1.32-1.13-2.58-2.34-3.9-3.48-.36-.31-.82-.53-1.27-.68-2.7-.85-5.48-.96-8.28-.68-2.19,.22-4.2,1.07-6.34,1.84,.41,.83,.76,1.53,1.11,2.23,.37,.75,.93,1.11,1.8,1.03,.69-.06,1.39,0,2.09-.03,3.39-.13,6.67,.47,9.75,1.84,2.13,.94,4.15,2.15,6.18,3.31,.53,.3,.96,.82,1.37,1.3,.92,1.09,1.75,2.27,3.25,3.05Zm-14.32,13.87c-.73,.2-.61,.65-.58,1.11,.06,.93-.35,1.58-1.16,2.07-.78,.46-1.48,1.05-2.22,1.58,1.86,.14,3.62,.81,5.36,0,.34-.16,.78-.11,1.18-.1,2.11,.04,4.09,.69,6.04,1.4,1.11,.4,1.71,.39,2.35-.56,.83-1.24,1.33-2.64,.94-4.04-1.23-.24-2.28-.48-3.35-.63-1.06-.15-2.13-.23-3.2-.29-.27-.01-.56,.19-.81,.34-.38,.23-.74,.51-1.12,.74-.11,.07-.27,.04-.39,.05-.15-.37-.29-.7-.43-1.06-1.35,.94-2.22,1.08-2.6-.59Zm-42.35-100.28c.04,.12,.08,.25,.11,.37,.18,.04,.37,.14,.53,.11,2.25-.4,4.51-.8,6.75-1.23,1.17-.22,2.34-.48,3.49-.77,1.63-.41,3.25-.86,4.88-1.31,.75-.21,1.04-.77,.86-1.5-.24-.97-.49-1.93-.84-2.87-.36-.97-.88-1.06-1.71-.48-.55,.39-1.14,.75-1.74,1.07-1.18,.63-2.37,1.23-3.56,1.84-.31,.16-.63,.37-.96,.39-1.26,.08-2.26,.73-3.26,1.37-1.54,.98-3.04,2.01-4.56,3.01Zm16.5,38.85c.34-.66,.12-1.46,1.02-1.49,.15,0,.34-.34,.44-.55,1.4-2.87,2.04-5.91,1.96-9.1,0-.37-.1-.74-.16-1.22-2.67,1.05-4.03,3.33-5.77,5.17-.06,.07-.09,.18-.1,.28-.12,1.07-.79,1.78-1.53,2.48-.33,.31-.49,.8-.74,1.22,1.45,1.46,2.71,2.95,4.89,3.21Zm-3.07,61.9c-1.41,1.32-2.79,2.18-3.72,3.68,1.75-.56,1.89-.46,1.74,1.02-.47,.31-.91,.64-1.38,.91-.55,.32-1.1,.73-1.71,.87-1.39,.33-2.82,.51-4.23,.76-1.24,.22-2.88,1.38-2.89,2.44,0,1.3-.15,2.68,.57,3.86,2.07,.37,3.29-.89,4.56-2.1,.97-.92,1.95-1.83,2.98-2.69,.95-.79,1.96-1.52,2.96-2.26,.62-.46,.9-1,.72-1.79-.16-.72-.35-1.47-.3-2.19,.05-.73,.39-1.43,.7-2.5Zm38.32-109.79c-2.05-.78-4.13-1.02-6.26-.83-.22,.02-.53,.33-.61,.56-.47,1.44-.79,2.92-.76,4.57,.58-.49,.97-1,1.49-1.21,1.37-.55,2.79-.99,4.19-1.44,.83-.26,1.6-.56,1.95-1.66Zm-43.63,60.74c-.83-2.79-3.26-4.36-4.72-6.93-.62,.7-1.06,1.19-1.62,1.82,2.28,1.68,3.87,3.88,6.33,5.11Zm-1.07-7.37c-.51-.96,.14-2.6-1.67-2.74-.14,.65-.59,1.28-.15,1.95,.5,.75,1.06,1.42,2.03,1.65,.43,.1,.81,.41,1.11,.56,.52-.22,1.01-.43,1.57-.67-.53-.49-1.03-.95-1.56-1.44-.46,.24-.84,.43-1.33,.69Zm31.63-19.83c-.24,1.27,1.08,1.76,1.13,2.8,.02,.34,.66,.64,1.03,.95,.04,.03,.17-.06,.36-.14-.1-.33-.2-.67-.29-.97,.23-.17,.44-.33,.76-.57-1.05-.73-1.97-1.36-2.99-2.07Zm-24.55,72.74q-1.08,1.18-.72,2.31c.25-.79,.44-1.41,.72-2.31Z"/><circle class="cls-2" cx="229.13" cy="229.18" r="9.21"/></g></svg>